<svg width="1280" height="399" viewBox="0 0 1280 399" fill="none" xmlns="http://www.w3.org/2000/svg">
<g clip-path="url(#clip0_29_560)">
<path d="M0 50L128 151L256 94L384 113L512 69L640 128L768 106L896 77L1024 141L1152 64L1280 80V401H1152H1024H896H768H640H512H384H256H128H0V50Z" fill="#5079CC"/>
<path d="M0 130L128 121L256 202L384 180L512 114L640 179L768 186L896 183L1024 94L1152 91L1280 143V401H1152H1024H896H768H640H512H384H256H128H0V130Z" fill="#0092D4"/>
<path d="M0 224L128 218L256 232L384 155L512 178L640 143L768 163L896 219L1024 162L1152 164L1280 204V401H1152H1024H896H768H640H512H384H256H128H0V224Z" fill="#00A6CB"/>
<path d="M0 244L128 256L256 247L384 258L512 206L640 233L768 218L896 202L1024 215L1152 227L1280 226V401H1152H1024H896H768H640H512H384H256H128H0V244Z" fill="#00B6B9"/>
<path d="M0 298L128 295L256 309L384 300H512L640 301L768 278L896 277L1024 298L1152 236L1280 228V401H1152H1024H896H768H640H512H384H256H128H0V298Z" fill="#38C39D"/>
<path d="M0 333L128 304L256 294L384 296L512 342L640 316L768 327L896 341L1024 343L1152 300L1280 336V401H1152H1024H896H768H640H512H384H256H128H0V333Z" fill="#7ACA76"/>
<path d="M0 329L128 360L256 336L384 329L512 324L640 354L768 342L896 320L1024 367L1152 333L1280 347V401H1152H1024H896H768H640H512H384H256H128H0V329Z" fill="#BBCB50"/>
</g>
<defs>
<clipPath id="clip0_29_560">
<rect width="1280" height="400" fill="white"/>
</clipPath>
</defs>
</svg>
