<svg width="900" height="2597" viewBox="0 0 900 2597" fill="none" xmlns="http://www.w3.org/2000/svg">
<g opacity="0.85" clip-path="url(#clip0_86_3)">
<rect width="1280" height="2601" fill="white"/>
<path d="M1280 0H0V2601H1280V0Z" fill="#678CEC"/>
<path d="M418 440.57L419.7 445.872H425.2L420.7 449.073L422.4 454.275L418 451.074L413.6 454.275L415.3 449.073L410.8 445.872H416.3L418 440.57Z" fill="#BBCB50"/>
<path d="M178 2113.91L182.2 2127.02H196L184.9 2135.02L189.1 2148.13L178 2140.02L166.9 2148.13L171.1 2135.02L160 2127.02H173.8L178 2113.91Z" fill="#BBCB50"/>
<path d="M433 1785.29L439.1 1804.19H459L442.9 1815.9L449.1 1834.81L433 1823.2L416.9 1834.81L423.1 1815.9L407 1804.19H426.9L433 1785.29Z" fill="#BBCB50"/>
<path d="M718 2189.54L724.6 2209.85H745.8L728.6 2222.36L735.2 2242.56L718 2230.06L700.8 2242.56L707.4 2222.36L690.2 2209.85H711.4L718 2189.54Z" fill="#BBCB50"/>
<path d="M99 880.739L104.3 897.045H121.4L107.6 907.149L112.9 923.456L99 913.352L85.1 923.456L90.4 907.149L76.6 897.045H93.7L99 880.739Z" fill="#BBCB50"/>
<path d="M794 1709.06L799.3 1725.36H816.4L802.6 1735.47L807.9 1751.77L794 1741.67L780.1 1751.77L785.4 1735.47L771.6 1725.36H788.7L794 1709.06Z" fill="#BBCB50"/>
<path d="M657 1985.86L661 1998.27H674.1L663.5 2005.87L667.5 2018.28L657 2010.57L646.5 2018.28L650.5 2005.87L639.9 1998.27H653L657 1985.86Z" fill="#BBCB50"/>
<path d="M843 325.325L847.4 339.031H861.9L850.2 347.434L854.7 361.139L843 352.736L831.3 361.139L835.8 347.434L824.1 339.031H838.6L843 325.325Z" fill="#BBCB50"/>
<path d="M678 1133.14L680.8 1141.64H689.7L682.5 1146.84L685.2 1155.34L678 1150.14L670.8 1155.34L673.5 1146.84L666.3 1141.64H675.2L678 1133.14Z" fill="#BBCB50"/>
<path d="M649 1787.19L654.5 1804.09H672.3L657.9 1814.6L663.4 1831.61L649 1821.1L634.6 1831.61L640.1 1814.6L625.7 1804.09H643.5L649 1787.19Z" fill="#BBCB50"/>
<path d="M649 850.928L651.1 857.43H658L652.4 861.432L654.5 867.934L649 863.933L643.5 867.934L645.6 861.432L640 857.43H646.9L649 850.928Z" fill="#BBCB50"/>
<path d="M523 1222.77L527.9 1237.78H543.6L530.9 1247.08L535.8 1262.09L523 1252.78L510.2 1262.09L515.1 1247.08L502.4 1237.78H518.1L523 1222.77Z" fill="#BBCB50"/>
<path d="M170 250.196L174 262.601H187.1L176.5 270.204L180.5 282.609L170 274.906L159.5 282.609L163.5 270.204L152.9 262.601H166L170 250.196Z" fill="#BBCB50"/>
<path d="M650 2451.64L656.6 2471.95H677.8L660.6 2484.46L667.2 2504.66L650 2492.16L632.8 2504.66L639.4 2484.46L622.2 2471.95H643.4L650 2451.64Z" fill="#BBCB50"/>
<path d="M347 368.642L352.7 386.249H371.2L356.3 397.153L362 414.76L347 403.855L332 414.76L337.7 397.153L322.8 386.249H341.3L347 368.642Z" fill="#BBCB50"/>
<path d="M31 2182.34L36.7 2199.95H55.2L40.3 2210.85L46 2228.46L31 2217.55L16 2228.46L21.7 2210.85L6.79999 2199.95H25.3L31 2182.34Z" fill="#BBCB50"/>
<path d="M583 1981.56L586 1990.67H595.6L587.8 1996.37L590.8 2005.47L583 1999.77L575.2 2005.47L578.2 1996.37L570.4 1990.67H580L583 1981.56Z" fill="#BBCB50"/>
<path d="M466 1902.13L467.5 1906.73H472.3L468.4 1909.54L469.9 1914.04L466 1911.24L462.1 1914.04L463.6 1909.54L459.7 1906.73H464.5L466 1902.13Z" fill="#BBCB50"/>
<path d="M799 758.992L801.5 766.795H809.8L803.1 771.597L805.7 779.5L799 774.598L792.3 779.5L794.9 771.597L788.2 766.795H796.5L799 758.992Z" fill="#BBCB50"/>
<path d="M305 725.079L308.2 734.883H318.5L310.1 740.985L313.3 750.789L305 744.687L296.7 750.789L299.9 740.985L291.5 734.883H301.8L305 725.079Z" fill="#BBCB50"/>
<path d="M298 1341.82L303.1 1357.52H319.5L306.2 1367.23L311.3 1382.83L298 1373.23L284.7 1382.83L289.8 1367.23L276.5 1357.52H292.9L298 1341.82Z" fill="#BBCB50"/>
<path d="M658 253.197L662 265.602H675.1L664.5 273.205L668.5 285.61L658 277.907L647.5 285.61L651.5 273.205L640.9 265.602H654L658 253.197Z" fill="#BBCB50"/>
<path d="M341 1507.78L345.4 1521.49H359.9L348.2 1529.89L352.7 1543.59L341 1535.19L329.3 1543.59L333.8 1529.89L322.1 1521.49H336.6L341 1507.78Z" fill="#BBCB50"/>
<path d="M675 665.956L677.5 673.759H685.8L679.1 678.561L681.7 686.464L675 681.562L668.3 686.464L670.9 678.561L664.2 673.759H672.5L675 665.956Z" fill="#BBCB50"/>
<path d="M156 1258.58L160 1270.99H173.1L162.5 1278.59L166.5 1291L156 1283.29L145.5 1291L149.5 1278.59L138.9 1270.99H152L156 1258.58Z" fill="#BBCB50"/>
<path d="M273 813.913L279.1 832.821H299L282.9 844.525L289.1 863.432L273 851.828L256.9 863.432L263.1 844.525L247 832.821H266.9L273 813.913Z" fill="#BBCB50"/>
<path d="M606 1190.06L608.3 1197.26H615.9L609.8 1201.66L612.1 1208.87L606 1204.46L599.9 1208.87L602.2 1201.66L596.1 1197.26H603.7L606 1190.06Z" fill="#BBCB50"/>
<path d="M495 2271.07L499.4 2284.78H513.9L502.2 2293.18L506.7 2306.89L495 2298.49L483.3 2306.89L487.8 2293.18L476.1 2284.78H490.6L495 2271.07Z" fill="#BBCB50"/>
<path d="M814 1218.77L815.3 1222.77H819.4L816.1 1225.17L817.3 1229.07L814 1226.67L810.7 1229.07L811.9 1225.17L808.6 1222.77H812.7L814 1218.77Z" fill="#BBCB50"/>
<path d="M732 22.5087L733.9 28.4109H740.1L735.1 32.0123L737 37.9146L732 34.2132L727 37.9146L728.9 32.0123L723.9 28.4109H730.1L732 22.5087Z" fill="#BBCB50"/>
<path d="M715 1378.93L720.3 1395.24H737.4L723.6 1405.34L728.9 1421.65L715 1411.54L701.1 1421.65L706.4 1405.34L692.6 1395.24H709.7L715 1378.93Z" fill="#BBCB50"/>
<path d="M363 163.663L365.3 170.866H372.9L366.8 175.267L369.1 182.47L363 178.069L356.9 182.47L359.2 175.267L353.1 170.866H360.7L363 163.663Z" fill="#BBCB50"/>
<path d="M781 952.067L787.4 971.674H807.9L791.3 983.679L797.6 1003.29L781 991.182L764.4 1003.29L770.7 983.679L754.1 971.674H774.6L781 952.067Z" fill="#BBCB50"/>
<path d="M400 2107.41L406.1 2126.32H426L409.9 2138.02L416.1 2156.93L400 2145.33L383.9 2156.93L390.1 2138.02L374 2126.32H393.9L400 2107.41Z" fill="#BBCB50"/>
<path d="M500 37.4144L501.7 42.7165H507.2L502.7 45.9177L504.4 51.1197L500 47.9185L495.6 51.1197L497.3 45.9177L492.8 42.7165H498.3L500 37.4144Z" fill="#BBCB50"/>
<path d="M628 906.649L632.9 921.655H648.6L635.9 930.959L640.8 945.964L628 936.661L615.2 945.964L620.1 930.959L607.4 921.655H623.1L628 906.649Z" fill="#BBCB50"/>
<path d="M483 2363.81L486.4 2374.21H497.4L488.5 2380.72L491.9 2391.12L483 2384.72L474.1 2391.12L477.5 2380.72L468.6 2374.21H479.6L483 2363.81Z" fill="#BBCB50"/>
<path d="M846 2142.43L851.9 2160.63H871.1L855.6 2171.94L861.5 2190.24L846 2178.94L830.5 2190.24L836.4 2171.94L820.9 2160.63H840.1L846 2142.43Z" fill="#BBCB50"/>
<path d="M160 1854.51L163 1863.62H172.6L164.8 1869.32L167.8 1878.42L160 1872.72L152.2 1878.42L155.2 1869.32L147.4 1863.62H157L160 1854.51Z" fill="#BBCB50"/>
<path d="M864 255.798L866.5 263.601H874.8L868.1 268.403L870.7 276.306L864 271.405L857.3 276.306L859.9 268.403L853.2 263.601H861.5L864 255.798Z" fill="#BBCB50"/>
<path d="M602 1306.9L607.3 1323.21H624.4L610.6 1333.31L615.9 1349.62L602 1339.52L588.1 1349.62L593.4 1333.31L579.6 1323.21H596.7L602 1306.9Z" fill="#BBCB50"/>
<path d="M441 1299.7L445.4 1313.41H459.9L448.2 1321.81L452.7 1335.51L441 1327.11L429.3 1335.51L433.8 1321.81L422.1 1313.41H436.6L441 1299.7Z" fill="#BBCB50"/>
<path d="M252 2474.25L253.1 2477.45H256.5L253.7 2479.55L254.8 2482.76L252 2480.76L249.2 2482.76L250.3 2479.55L247.5 2477.45H250.9L252 2474.25Z" fill="#BBCB50"/>
<path d="M760 2125.22L765.3 2141.52H782.4L768.6 2151.63L773.9 2167.93L760 2157.83L746.1 2167.93L751.4 2151.63L737.6 2141.52H754.7L760 2125.22Z" fill="#BBCB50"/>
<path d="M175 1980.06L179.9 1995.07H195.6L182.9 2004.37L187.8 2019.38L175 2010.07L162.2 2019.38L167.1 2004.37L154.4 1995.07H170.1L175 1980.06Z" fill="#BBCB50"/>
<path d="M892 532.905L898.6 553.213H919.8L902.6 565.718L909.2 585.926L892 573.421L874.8 585.926L881.4 565.718L864.2 553.213H885.4L892 532.905Z" fill="#BBCB50"/>
<path d="M10 1603.12L15.5 1620.02H33.3L18.9 1630.53L24.4 1647.53L10 1637.03L-4.39999 1647.53L1.10001 1630.53L-13.3 1620.02H4.50001L10 1603.12Z" fill="#BBCB50"/>
<path d="M421 1133.14L427.4 1152.74H447.9L431.3 1164.75L437.6 1184.36L421 1172.25L404.4 1184.36L410.7 1164.75L394.1 1152.74H414.6L421 1133.14Z" fill="#BBCB50"/>
<path d="M903 1673.34L909.6 1693.65H930.8L913.6 1706.16L920.2 1726.36L903 1713.86L885.8 1726.36L892.4 1706.16L875.2 1693.65H896.4L903 1673.34Z" fill="#BBCB50"/>
<path d="M281 1092.72L285.9 1107.73H301.6L288.9 1117.03L293.8 1132.04L281 1122.73L268.2 1132.04L273.1 1117.03L260.4 1107.73H276.1L281 1092.72Z" fill="#BBCB50"/>
<path d="M535 2086.8L538.8 2098.61H551.2L541.2 2105.81L545 2117.52L535 2110.31L525 2117.52L528.8 2105.81L518.8 2098.61H531.2L535 2086.8Z" fill="#BBCB50"/>
<path d="M861 1910.14L862.5 1914.74H867.3L863.4 1917.54L864.9 1922.04L861 1919.24L857.1 1922.04L858.6 1917.54L854.7 1914.74H859.5L861 1910.14Z" fill="#BBCB50"/>
<path d="M69 1739.97L73.9 1754.98H89.6L76.9 1764.28L81.8 1779.29L69 1769.98L56.2 1779.29L61.1 1764.28L48.4 1754.98H64.1L69 1739.97Z" fill="#BBCB50"/>
<path d="M504 198.576L509.5 215.483H527.3L512.9 225.987L518.4 242.994L504 232.49L489.6 242.994L495.1 225.987L480.7 215.483H498.5L504 198.576Z" fill="#BBCB50"/>
<path d="M789 881.439L793 893.844H806.1L795.5 901.447L799.5 913.852L789 906.149L778.5 913.852L782.5 901.447L771.9 893.844H785L789 881.439Z" fill="#BBCB50"/>
<path d="M681 126.449L682.5 131.05H687.3L683.4 133.852L684.9 138.353L681 135.552L677.1 138.353L678.6 133.852L674.7 131.05H679.5L681 126.449Z" fill="#BBCB50"/>
<path d="M106 210.781L112.4 230.389H132.9L116.3 242.393L122.6 262.001L106 249.896L89.4 262.001L95.7 242.393L79.1 230.389H99.6L106 210.781Z" fill="#BBCB50"/>
<path d="M611 42.8165L614 51.92H623.6L615.8 57.6222L618.8 66.7257L611 61.0235L603.2 66.7257L606.2 57.6222L598.4 51.92H608L611 42.8165Z" fill="#BBCB50"/>
<path d="M175 1151.74L180.1 1167.45H196.5L183.2 1177.15L188.3 1192.76L175 1183.16L161.7 1192.76L166.8 1177.15L153.5 1167.45H169.9L175 1151.74Z" fill="#BBCB50"/>
<path d="M206 2381.22L211.1 2396.92H227.5L214.2 2406.63L219.3 2422.23L206 2412.63L192.7 2422.23L197.8 2406.63L184.5 2396.92H200.9L206 2381.22Z" fill="#BBCB50"/>
<path d="M56 707.673L57.5 712.274H62.3L58.4 715.075L59.9 719.577L56 716.776L52.1 719.577L53.6 715.075L49.7 712.274H54.5L56 707.673Z" fill="#BBCB50"/>
<path d="M364 1931.94L364.8 1934.54H367.6L365.4 1936.15L366.2 1938.85L364 1937.15L361.8 1938.85L362.6 1936.15L360.4 1934.54H363.2L364 1931.94Z" fill="#BBCB50"/>
<path d="M35 1202.86L36.5 1207.46H41.3L37.4 1210.27L38.9 1214.77L35 1211.97L31.1 1214.77L32.6 1210.27L28.7 1207.46H33.5L35 1202.86Z" fill="#BBCB50"/>
<path d="M248 2226.06L252.4 2239.76H266.9L255.2 2248.17L259.7 2261.87L248 2253.47L236.3 2261.87L240.8 2248.17L229.1 2239.76H243.6L248 2226.06Z" fill="#BBCB50"/>
<path d="M398 1458.16L400.1 1464.66H407L401.4 1468.67L403.5 1475.17L398 1471.17L392.5 1475.17L394.6 1468.67L389 1464.66H395.9L398 1458.16Z" fill="#BBCB50"/>
<path d="M216 74.8288L219 83.9323H228.6L220.8 89.6345L223.8 98.738L216 93.0358L208.2 98.738L211.2 89.6345L203.4 83.9323H213L216 74.8288Z" fill="#BBCB50"/>
<path d="M833 478.584L834.7 483.886H840.2L835.7 487.088L837.4 492.29L833 489.088L828.6 492.29L830.3 487.088L825.8 483.886H831.3L833 478.584Z" fill="#BBCB50"/>
<path d="M561 908.35L564.8 920.154H577.2L567.2 927.357L571 939.062L561 931.859L551 939.062L554.8 927.357L544.8 920.154H557.2L561 908.35Z" fill="#BBCB50"/>
<path d="M592 1546.6L595.6 1557.6H607.3L597.8 1564.5L601.4 1575.61L592 1568.7L582.6 1575.61L586.2 1564.5L576.7 1557.6H588.4L592 1546.6Z" fill="#BBCB50"/>
<path d="M870 2219.35L875.7 2236.96H894.2L879.3 2247.87L885 2265.47L870 2254.57L855 2265.47L860.7 2247.87L845.8 2236.96H864.3L870 2219.35Z" fill="#BBCB50"/>
<path d="M800 1971.06L801.3 1975.06H805.4L802.1 1977.46L803.3 1981.36L800 1978.96L796.7 1981.36L797.9 1977.46L794.6 1975.06H798.7L800 1971.06Z" fill="#BBCB50"/>
<path d="M153 526.903L155.8 535.406H164.7L157.5 540.608L160.2 549.111L153 543.909L145.8 549.111L148.5 540.608L141.3 535.406H150.2L153 526.903Z" fill="#BBCB50"/>
<path d="M825 605.733L826.9 611.635H833.1L828.1 615.237L830 621.139L825 617.438L820 621.139L821.9 615.237L816.9 611.635H823.1L825 605.733Z" fill="#BBCB50"/>
<path d="M613 1626.33L615.8 1634.83H624.7L617.5 1640.03L620.2 1648.53L613 1643.33L605.8 1648.53L608.5 1640.03L601.3 1634.83H610.2L613 1626.33Z" fill="#BBCB50"/>
<path d="M587 794.506L587.8 797.107H590.6L588.4 798.708L589.2 801.409L587 799.708L584.8 801.409L585.6 798.708L583.4 797.107H586.2L587 794.506Z" fill="#BBCB50"/>
<path d="M449 2436.54L454.9 2454.75H474.1L458.6 2466.05L464.5 2484.36L449 2473.05L433.5 2484.36L439.4 2466.05L423.9 2454.75H443.1L449 2436.54Z" fill="#BBCB50"/>
<path d="M443 790.004L445.5 797.807H453.8L447.1 802.609L449.7 810.512L443 805.61L436.3 810.512L438.9 802.609L432.2 797.807H440.5L443 790.004Z" fill="#BBCB50"/>
<path d="M252 2151.53L258.4 2171.14H278.9L262.3 2183.14L268.6 2202.75L252 2190.64L235.4 2202.75L241.7 2183.14L225.1 2171.14H245.6L252 2151.53Z" fill="#BBCB50"/>
<path d="M89 320.623L94.5 337.53H112.3L97.8999 348.034L103.4 365.041L89 354.537L74.6 365.041L80.1 348.034L65.7 337.53H83.5L89 320.623Z" fill="#BBCB50"/>
<path d="M269 1274.79L270.1 1277.99H273.5L270.7 1280.09L271.8 1283.29L269 1281.29L266.2 1283.29L267.3 1280.09L264.5 1277.99H267.9L269 1274.79Z" fill="#BBCB50"/>
<path d="M919 2407.23L924.1 2422.93H940.5L927.2 2432.64L932.3 2448.24L919 2438.64L905.7 2448.24L910.8 2432.64L897.5 2422.93H913.9L919 2407.23Z" fill="#BBCB50"/>
<path d="M314 1201.56L318.2 1214.67H332L320.9 1222.67L325.1 1235.78L314 1227.67L302.9 1235.78L307.1 1222.67L296 1214.67H309.8L314 1201.56Z" fill="#BBCB50"/>
<path d="M699 206.279L699.8 208.88H702.6L700.4 210.481L701.2 213.182L699 211.481L696.8 213.182L697.6 210.481L695.4 208.88H698.2L699 206.279Z" fill="#BBCB50"/>
<path d="M814 129.35L815.1 132.551H818.5L815.7 134.652L816.8 137.853L814 135.852L811.2 137.853L812.3 134.652L809.5 132.551H812.9L814 129.35Z" fill="#BBCB50"/>
<path d="M391 1743.37L393.8 1751.87H402.7L395.5 1757.08L398.2 1765.58L391 1760.38L383.8 1765.58L386.5 1757.08L379.3 1751.87H388.2L391 1743.37Z" fill="#BBCB50"/>
<path d="M349 932.959L355.1 951.867H375L358.9 963.571L365.1 982.478L349 970.874L332.9 982.478L339.1 963.571L323 951.867H342.9L349 932.959Z" fill="#BBCB50"/>
<path d="M832 1061.91L833.9 1067.81H840.1L835.1 1071.41L837 1077.31L832 1073.61L827 1077.31L828.9 1071.41L823.9 1067.81H830.1L832 1061.91Z" fill="#BBCB50"/>
<path d="M440 1528.29L446.4 1547.9H466.9L450.3 1559.9L456.6 1579.51L440 1567.4L423.4 1579.51L429.7 1559.9L413.1 1547.9H433.6L440 1528.29Z" fill="#BBCB50"/>
<path d="M490 468.48L491.1 471.682H494.5L491.7 473.782L492.8 476.984L490 474.983L487.2 476.984L488.3 473.782L485.5 471.682H488.9L490 468.48Z" fill="#BBCB50"/>
<path d="M217 1558.9L218.1 1562.1H221.5L218.7 1564.2L219.8 1567.4L217 1565.4L214.2 1567.4L215.3 1564.2L212.5 1562.1H215.9L217 1558.9Z" fill="#BBCB50"/>
<path d="M209 962.271L212.4 972.675H223.4L214.5 979.177L217.9 989.581L209 983.179L200.1 989.581L203.5 979.177L194.6 972.675H205.6L209 962.271Z" fill="#BBCB50"/>
<path d="M731 1898.13L732.5 1902.73H737.3L733.4 1905.53L734.9 1910.04L731 1907.23L727.1 1910.04L728.6 1905.53L724.7 1902.73H729.5L731 1898.13Z" fill="#BBCB50"/>
<path d="M297 117.445L302.3 133.751H319.4L305.6 143.855L310.9 160.162L297 150.058L283.1 160.162L288.4 143.855L274.6 133.751H291.7L297 117.445Z" fill="#BBCB50"/>
<path d="M185 1760.38L187.5 1768.18H195.8L189.1 1772.98L191.7 1780.89L185 1775.98L178.3 1780.89L180.9 1772.98L174.2 1768.18H182.5L185 1760.38Z" fill="#BBCB50"/>
<path d="M888 1468.77L892.4 1482.47H906.9L895.2 1490.87L899.7 1504.58L888 1496.18L876.3 1504.58L880.8 1490.87L869.1 1482.47H883.6L888 1468.77Z" fill="#BBCB50"/>
<path d="M590 514.198L593.8 526.003H606.2L596.2 533.205L600 544.91L590 537.707L580 544.91L583.8 533.205L573.8 526.003H586.2L590 514.198Z" fill="#BBCB50"/>
<path d="M70 44.9173L73.4 55.3213H84.4L75.5 61.8238L78.9 72.2278L70 65.8253L61.1 72.2278L64.5 61.8238L55.6 55.3213H66.6L70 44.9173Z" fill="#BBCB50"/>
<path d="M878 1318.91L883.3 1335.21H900.4L886.6 1345.32L891.9 1361.62L878 1351.52L864.1 1361.62L869.4 1345.32L855.6 1335.21H872.7L878 1318.91Z" fill="#BBCB50"/>
<path d="M410 349.435L415.1 365.141H431.5L418.2 374.844L423.3 390.45L410 380.847L396.7 390.45L401.8 374.844L388.5 365.141H404.9L410 349.435Z" fill="#BBCB50"/>
<path d="M11 1901.33L13.3 1908.53H20.9L14.8 1912.94L17.1 1920.14L11 1915.74L4.90004 1920.14L7.20004 1912.94L1.10004 1908.53H8.70004L11 1901.33Z" fill="#BBCB50"/>
<path d="M355 607.034L358.2 616.838H368.5L360.1 622.94L363.3 632.744L355 626.641L346.7 632.744L349.9 622.94L341.5 616.838H351.8L355 607.034Z" fill="#BBCB50"/>
<path d="M206 841.924L208.1 848.427H215L209.4 852.428L211.5 858.931L206 854.929L200.5 858.931L202.6 852.428L197 848.427H203.9L206 841.924Z" fill="#BBCB50"/>
<path d="M21 2301.49L26.9 2319.69H46.1L30.6 2331L36.5 2349.3L21 2338L5.50002 2349.3L11.4 2331L-4.09998 2319.69H15.1L21 2301.49Z" fill="#BBCB50"/>
<path d="M821 662.355L825.2 675.46H839L827.9 683.463L832.1 696.568L821 688.465L809.9 696.568L814.1 683.463L803 675.46H816.8L821 662.355Z" fill="#BBCB50"/>
<path d="M668 1733.27L670.1 1739.77H677L671.4 1743.77L673.5 1750.27L668 1746.27L662.5 1750.27L664.6 1743.77L659 1739.77H665.9L668 1733.27Z" fill="#BBCB50"/>
<path d="M277 2081.1L278.3 2085.1H282.4L279.1 2087.5L280.3 2091.41L277 2089L273.7 2091.41L274.9 2087.5L271.6 2085.1H275.7L277 2081.1Z" fill="#BBCB50"/>
<path d="M785 1511.98L786.7 1517.28H792.2L787.7 1520.49L789.4 1525.69L785 1522.49L780.6 1525.69L782.3 1520.49L777.8 1517.28H783.3L785 1511.98Z" fill="#BBCB50"/>
<path d="M50 1259.58L54 1271.99H67.1L56.5 1279.59L60.5 1292L50 1284.29L39.5 1292L43.5 1279.59L32.9 1271.99H46L50 1259.58Z" fill="#BBCB50"/>
<path d="M17 836.722L18.7 842.024H24.2L19.7 845.226L21.4 850.428L17 847.226L12.6 850.428L14.3 845.226L9.79999 842.024H15.3L17 836.722Z" fill="#BBCB50"/>
<path d="M522 1946.35L524.3 1953.55H531.9L525.8 1957.95L528.1 1965.16L522 1960.75L515.9 1965.16L518.2 1957.95L512.1 1953.55H519.7L522 1946.35Z" fill="#BBCB50"/>
<path d="M520 385.749L525.9 403.956H545.1L529.6 415.26L535.5 433.567L520 422.263L504.5 433.567L510.4 415.26L494.9 403.956H514.1L520 385.749Z" fill="#BBCB50"/>
<path d="M11 135.752L13.5 143.555H21.8L15.1 148.357L17.7 156.26L11 151.358L4.30001 156.26L6.90001 148.357L0.200012 143.555H8.50001L11 135.752Z" fill="#BBCB50"/>
<path d="M87 1517.18L89.1 1523.69H96L90.4 1527.69L92.5 1534.19L87 1530.19L81.5 1534.19L83.6 1527.69L78 1523.69H84.9L87 1517.18Z" fill="#BBCB50"/>
<path d="M250 1890.43L252.5 1898.23H260.8L254.1 1903.03L256.7 1910.94L250 1906.03L243.3 1910.94L245.9 1903.03L239.2 1898.23H247.5L250 1890.43Z" fill="#BBCB50"/>
<path d="M83 1631.83L87.4 1645.53H101.9L90.2 1653.94L94.7 1667.64L83 1659.24L71.3 1667.64L75.8 1653.94L64.1 1645.53H78.6L83 1631.83Z" fill="#BBCB50"/>
<path d="M745 1778.18L750.7 1795.79H769.2L754.3 1806.7L760 1824.3L745 1813.4L730 1824.3L735.7 1806.7L720.8 1795.79H739.3L745 1778.18Z" fill="#BBCB50"/>
<path d="M337 2259.57L343.4 2279.18H363.9L347.3 2291.18L353.6 2310.79L337 2298.69L320.4 2310.79L326.7 2291.18L310.1 2279.18H330.6L337 2259.57Z" fill="#BBCB50"/>
<path d="M427 582.624L432.3 598.931H449.4L435.6 609.035L440.9 625.341L427 615.237L413.1 625.341L418.4 609.035L404.6 598.931H421.7L427 582.624Z" fill="#BBCB50"/>
<path d="M746 2454.14L750.7 2468.55H765.7L753.5 2477.45L758.2 2491.76L746 2482.86L733.8 2491.76L738.5 2477.45L726.3 2468.55H741.3L746 2454.14Z" fill="#BBCB50"/>
<path d="M387 525.502L392.1 541.208H408.5L395.2 550.912L400.3 566.518L387 556.914L373.7 566.518L378.8 550.912L365.5 541.208H381.9L387 525.502Z" fill="#BBCB50"/>
<path d="M145 427.265L149.2 440.37H163L151.9 448.373L156.1 461.478L145 453.375L133.9 461.478L138.1 448.373L127 440.37H140.8L145 427.265Z" fill="#BBCB50"/>
<path d="M82 2442.24L87.1 2457.95H103.5L90.2 2467.65L95.3 2483.26L82 2473.65L68.7 2483.26L73.8 2467.65L60.5 2457.95H76.9L82 2442.24Z" fill="#BBCB50"/>
<path d="M452 684.063L455 693.167H464.6L456.8 698.869L459.8 707.973L452 702.27L444.2 707.973L447.2 698.869L439.4 693.167H449L452 684.063Z" fill="#BBCB50"/>
<path d="M294 527.203L297.6 538.207H309.3L299.8 545.11L303.4 556.214L294 549.312L284.6 556.214L288.2 545.11L278.7 538.207H290.4L294 527.203Z" fill="#BBCB50"/>
<path d="M41 2511.07L45.2 2524.17H59L47.9 2532.18L52.1 2545.28L41 2537.18L29.9 2545.28L34.1 2532.18L23 2524.17H36.8L41 2511.07Z" fill="#BBCB50"/>
<path d="M835 1.60062L837.3 8.80339H844.9L838.8 13.2051L841.1 20.4079L835 16.0062L828.9 20.4079L831.2 13.2051L825.1 8.80339H832.7L835 1.60062Z" fill="#BBCB50"/>
<path d="M394 244.594L399.7 262.201H418.2L403.3 273.105L409 290.712L394 279.808L379 290.712L384.7 273.105L369.8 262.201H388.3L394 244.594Z" fill="#BBCB50"/>
<path d="M300 1965.76L303.8 1977.56H316.2L306.2 1984.76L310 1996.47L300 1989.27L290 1996.47L293.8 1984.76L283.8 1977.56H296.2L300 1965.76Z" fill="#BBCB50"/>
<path d="M530 678.561L531.3 682.563H535.4L532.1 684.964L533.3 688.865L530 686.464L526.7 688.865L527.9 684.964L524.6 682.563H528.7L530 678.561Z" fill="#BBCB50"/>
<path d="M95 467.88L101.4 487.488H121.9L105.3 499.492L111.6 519.1L95 506.995L78.4 519.1L84.7 499.492L68.1 487.488H88.6L95 467.88Z" fill="#BBCB50"/>
<path d="M280 1571L281.7 1576.31H287.2L282.7 1579.51L284.4 1584.71L280 1581.51L275.6 1584.71L277.3 1579.51L272.8 1576.31H278.3L280 1571Z" fill="#BBCB50"/>
<path d="M455 1025.9L460.5 1042.8H478.3L463.9 1053.31L469.4 1070.31L455 1059.81L440.6 1070.31L446.1 1053.31L431.7 1042.8H449.5L455 1025.9Z" fill="#BBCB50"/>
<path d="M366 1081.82L367.5 1086.42H372.3L368.4 1089.22L369.9 1093.72L366 1090.92L362.1 1093.72L363.6 1089.22L359.7 1086.42H364.5L366 1081.82Z" fill="#BBCB50"/>
<path d="M410 1657.94L414.9 1672.94H430.6L417.9 1682.25L422.8 1697.25L410 1687.95L397.2 1697.25L402.1 1682.25L389.4 1672.94H405.1L410 1657.94Z" fill="#BBCB50"/>
<path d="M425 2029.38L430.9 2047.59H450.1L434.6 2058.89L440.5 2077.2L425 2065.9L409.5 2077.2L415.4 2058.89L399.9 2047.59H419.1L425 2029.38Z" fill="#BBCB50"/>
<path d="M713 970.774L714.5 975.376H719.3L715.4 978.177L716.9 982.678L713 979.877L709.1 982.678L710.6 978.177L706.7 975.376H711.5L713 970.774Z" fill="#BBCB50"/>
<path d="M633 2344.7L636.2 2354.51H646.5L638.1 2360.61L641.3 2370.41L633 2364.31L624.7 2370.41L627.9 2360.61L619.5 2354.51H629.8L633 2344.7Z" fill="#BBCB50"/>
<path d="M495 923.856L500.7 941.462H519.2L504.3 952.367L510 969.973L495 959.069L480 969.973L485.7 952.367L470.8 941.462H489.3L495 923.856Z" fill="#BBCB50"/>
<path d="M563 1782.69L566.8 1794.49H579.2L569.2 1801.69L573 1813.4L563 1806.2L553 1813.4L556.8 1801.69L546.8 1794.49H559.2L563 1782.69Z" fill="#BBCB50"/>
<path d="M499 741.786L504.7 759.392H523.2L508.3 770.297L514 787.903L499 776.999L484 787.903L489.7 770.297L474.8 759.392H493.3L499 741.786Z" fill="#BBCB50"/>
<path d="M16 899.346L19.8 911.151H32.2L22.2 918.354L26 930.058L16 922.855L5.99999 930.058L9.79999 918.354L-0.200012 911.151H12.2L16 899.346Z" fill="#BBCB50"/>
<path d="M798 1364.93L803.3 1381.23H820.4L806.6 1391.34L811.9 1407.64L798 1397.54L784.1 1407.64L789.4 1391.34L775.6 1381.23H792.7L798 1364.93Z" fill="#BBCB50"/>
<path d="M125 2292.48L127.3 2299.69H134.9L128.8 2304.09L131.1 2311.29L125 2306.89L118.9 2311.29L121.2 2304.09L115.1 2299.69H122.7L125 2292.48Z" fill="#BBCB50"/>
<path d="M29 1667.94L34.1 1683.65H50.5L37.2 1693.35L42.3 1708.96L29 1699.35L15.7 1708.96L20.8 1693.35L7.5 1683.65H23.9L29 1667.94Z" fill="#BBCB50"/>
<path d="M880 2480.86L883.4 2491.26H894.4L885.5 2497.76L888.9 2508.17L880 2501.76L871.1 2508.17L874.5 2497.76L865.6 2491.26H876.6L880 2480.86Z" fill="#BBCB50"/>
<path d="M262 633.744L263.9 639.646H270.1L265.1 643.248L267 649.15L262 645.449L257 649.15L258.9 643.248L253.9 639.646H260.1L262 633.744Z" fill="#BBCB50"/>
<path d="M507 2507.87L510.4 2518.27H521.4L512.5 2524.77L515.9 2535.18L507 2528.77L498.1 2535.18L501.5 2524.77L492.6 2518.27H503.6L507 2507.87Z" fill="#BBCB50"/>
<path d="M718 478.784L720.1 485.287H727L721.4 489.288L723.5 495.791L718 491.789L712.5 495.791L714.6 489.288L709 485.287H715.9L718 478.784Z" fill="#BBCB50"/>
<path d="M809 521.701L814.5 538.607H832.3L817.9 549.111L823.4 566.118L809 555.614L794.6 566.118L800.1 549.111L785.7 538.607H803.5L809 521.701Z" fill="#BBCB50"/>
<path d="M649 1511.68L653.2 1524.79H667L655.9 1532.79L660.1 1545.9L649 1537.79L637.9 1545.9L642.1 1532.79L631 1524.79H644.8L649 1511.68Z" fill="#BBCB50"/>
<path d="M500 534.906L506.6 555.214H527.8L510.6 567.719L517.2 587.926L500 575.422L482.8 587.926L489.4 567.719L472.2 555.214H493.4L500 534.906Z" fill="#BBCB50"/>
<path d="M246 183.471L247.5 188.072H252.3L248.4 190.873L249.9 195.375L246 192.574L242.1 195.375L243.6 190.873L239.7 188.072H244.5L246 183.471Z" fill="#BBCB50"/>
<path d="M1.00002 1439.75L1.80002 1442.36H4.60002L2.40002 1443.96L3.20002 1446.66L1.00002 1444.96L-1.19998 1446.66L-0.399976 1443.96L-2.59998 1442.36H0.200024L1.00002 1439.75Z" fill="#BBCB50"/>
<path d="M582 272.305L586.4 286.01H600.9L589.2 294.413L593.7 308.119L582 299.715L570.3 308.119L574.8 294.413L563.1 286.01H577.6L582 272.305Z" fill="#BBCB50"/>
<path d="M325 285.81L331.6 306.118H352.8L335.6 318.623L342.2 338.83L325 326.326L307.8 338.83L314.4 318.623L297.2 306.118H318.4L325 285.81Z" fill="#BBCB50"/>
<path d="M885 177.268L889.7 191.674H904.7L892.5 200.577L897.2 214.883L885 205.979L872.8 214.883L877.5 200.577L865.3 191.674H880.3L885 177.268Z" fill="#BBCB50"/>
<path d="M824 1264.19L830.4 1283.79H850.9L834.3 1295.8L840.6 1315.41L824 1303.3L807.4 1315.41L813.7 1295.8L797.1 1283.79H817.6L824 1264.19Z" fill="#BBCB50"/>
<path d="M331 228.388L332.1 231.589H335.5L332.7 233.69L333.8 236.891L331 234.89L328.2 236.891L329.3 233.69L326.5 231.589H329.9L331 228.388Z" fill="#BBCB50"/>
<path d="M175 367.441L176.3 371.443H180.4L177.1 373.844L178.3 377.745L175 375.344L171.7 377.745L172.9 373.844L169.6 371.443H173.7L175 367.441Z" fill="#BBCB50"/>
<path d="M722 2366.41L727.7 2384.02H746.2L731.3 2394.92L737 2412.53L722 2401.62L707 2412.53L712.7 2394.92L697.8 2384.02H716.3L722 2366.41Z" fill="#BBCB50"/>
<path d="M790 1840.71L793.8 1852.51H806.2L796.2 1859.72L800 1871.42L790 1864.22L780 1871.42L783.8 1859.72L773.8 1852.51H786.2L790 1840.71Z" fill="#BBCB50"/>
<path d="M315 54.2209L315.8 56.8219H318.6L316.4 58.4225L317.2 61.1235L315 59.4229L312.8 61.1235L313.6 58.4225L311.4 56.8219H314.2L315 54.2209Z" fill="#BBCB50"/>
<path d="M245 272.405L246.3 276.406H250.4L247.1 278.807L248.3 282.709L245 280.308L241.7 282.709L242.9 278.807L239.6 276.406H243.7L245 272.405Z" fill="#BBCB50"/>
<path d="M129 733.783L130.9 739.685H137.1L132.1 743.286L134 749.188L129 745.487L124 749.188L125.9 743.286L120.9 739.685H127.1L129 733.783Z" fill="#BBCB50"/>
<path d="M135 2056.29L136.9 2062.19H143.1L138.1 2065.8L140 2071.7L135 2068L130 2071.7L131.9 2065.8L126.9 2062.19H133.1L135 2056.29Z" fill="#BBCB50"/>
<path d="M685 1592.11L686.9 1598.02H693.1L688.1 1601.62L690 1607.52L685 1603.82L680 1607.52L681.9 1601.62L676.9 1598.02H683.1L685 1592.11Z" fill="#BBCB50"/>
<path d="M34 437.268L38 449.673H51.1L40.5 457.276L44.5 469.681L34 461.978L23.5 469.681L27.5 457.276L16.9 449.673H30L34 437.268Z" fill="#BBCB50"/>
<path d="M503 1488.27L505.5 1496.08H513.8L507.1 1500.88L509.7 1508.78L503 1503.88L496.3 1508.78L498.9 1500.88L492.2 1496.08H500.5L503 1488.27Z" fill="#BBCB50"/>
<path d="M574 2156.53L580.6 2176.84H601.8L584.6 2189.34L591.2 2209.55L574 2197.05L556.8 2209.55L563.4 2189.34L546.2 2176.84H567.4L574 2156.53Z" fill="#BBCB50"/>
<path d="M396 889.643L401.1 905.349H417.5L404.2 915.052L409.3 930.658L396 921.055L382.7 930.658L387.8 915.052L374.5 905.349H390.9L396 889.643Z" fill="#BBCB50"/>
<path d="M315 1638.43L318 1647.53H327.6L319.8 1653.24L322.8 1662.34L315 1656.64L307.2 1662.34L310.2 1653.24L302.4 1647.53H312L315 1638.43Z" fill="#BBCB50"/>
<path d="M94 2387.22L95.1 2390.42H98.5L95.7 2392.52L96.8 2395.72L94 2393.72L91.2 2395.72L92.3 2392.52L89.5 2390.42H92.9L94 2387.22Z" fill="#BBCB50"/>
<path d="M226 729.881L231.9 748.088H251.1L235.6 759.392L241.5 777.699L226 766.395L210.5 777.699L216.4 759.392L200.9 748.088H220.1L226 729.881Z" fill="#BBCB50"/>
<path d="M762 418.361L766.7 432.767H781.7L769.5 441.67L774.2 455.976L762 447.072L749.8 455.976L754.5 441.67L742.3 432.767H757.3L762 418.361Z" fill="#BBCB50"/>
<path d="M280 442.971L283.2 452.774H293.5L285.1 458.877L288.3 468.68L280 462.578L271.7 468.68L274.9 458.877L266.5 452.774H276.8L280 442.971Z" fill="#BBCB50"/>
<path d="M587 1690.95L592.1 1706.66H608.5L595.2 1716.36L600.3 1731.97L587 1722.36L573.7 1731.97L578.8 1716.36L565.5 1706.66H581.9L587 1690.95Z" fill="#BBCB50"/>
<path d="M10 2014.88L14 2027.28H27.1L16.5 2034.88L20.5 2047.29L10 2039.59L-0.499975 2047.29L3.50002 2034.88L-7.09998 2027.28H6.00002L10 2014.88Z" fill="#BBCB50"/>
<path d="M816 1639.63L819.6 1650.64H831.3L821.8 1657.54L825.4 1668.64L816 1661.74L806.6 1668.64L810.2 1657.54L800.7 1650.64H812.4L816 1639.63Z" fill="#BBCB50"/>
<path d="M459 2173.94L463.2 2187.04H477L465.9 2195.05L470.1 2208.15L459 2200.05L447.9 2208.15L452.1 2195.05L441 2187.04H454.8L459 2173.94Z" fill="#BBCB50"/>
<path d="M880 2319.59L882.8 2328.1H891.7L884.5 2333.3L887.2 2341.8L880 2336.6L872.8 2341.8L875.5 2333.3L868.3 2328.1H877.2L880 2319.59Z" fill="#BBCB50"/>
<path d="M693 1196.66L697.7 1211.07H712.7L700.5 1219.97L705.2 1234.28L693 1225.37L680.8 1234.28L685.5 1219.97L673.3 1211.07H688.3L693 1196.66Z" fill="#BBCB50"/>
<path d="M504 1310.2L510.6 1330.51H531.8L514.6 1343.02L521.2 1363.22L504 1350.72L486.8 1363.22L493.4 1343.02L476.2 1330.51H497.4L504 1310.2Z" fill="#BBCB50"/>
<path d="M236 2562.19L240.7 2576.59H255.7L243.5 2585.5L248.2 2599.8L236 2590.9L223.8 2599.8L228.5 2585.5L216.3 2576.59H231.3L236 2562.19Z" fill="#BBCB50"/>
<path d="M564 -25.4098L570.1 -6.5025H590L573.9 5.202L580.1 24.1093L564 12.5048L547.9 24.1093L554.1 5.202L538 -6.5025H557.9L564 -25.4098Z" fill="#BBCB50"/>
<path d="M509 1619.22L511.3 1626.43H518.9L512.8 1630.83L515.1 1638.03L509 1633.63L502.9 1638.03L505.2 1630.83L499.1 1626.43H506.7L509 1619.22Z" fill="#BBCB50"/>
<path d="M16 232.389L17.3 236.391H21.4L18.1 238.792L19.3 242.693L16 240.293L12.7 242.693L13.9 238.792L10.6 236.391H14.7L16 232.389Z" fill="#BBCB50"/>
<path d="M330 2178.54L336.4 2198.15H356.9L340.3 2210.15L346.6 2229.76L330 2217.65L313.4 2229.76L319.7 2210.15L303.1 2198.15H323.6L330 2178.54Z" fill="#BBCB50"/>
<path d="M364 747.488L368.7 761.893H383.7L371.5 770.797L376.2 785.102L364 776.199L351.8 785.102L356.5 770.797L344.3 761.893H359.3L364 747.488Z" fill="#BBCB50"/>
<path d="M865 958.469L869.2 971.574H883L871.9 979.577L876.1 992.682L865 984.579L853.9 992.682L858.1 979.577L847 971.574H860.8L865 958.469Z" fill="#BBCB50"/>
<path d="M400 85.633L405.9 103.84H425.1L409.6 115.144L415.5 133.451L400 122.147L384.5 133.451L390.4 115.144L374.9 103.84H394.1L400 85.633Z" fill="#BBCB50"/>
<path d="M435 1954.45L441.6 1974.76H462.8L445.6 1987.27L452.2 2007.47L435 1994.97L417.8 2007.47L424.4 1987.27L407.2 1974.76H428.4L435 1954.45Z" fill="#BBCB50"/>
<path d="M89 989.681L94.1 1005.39H110.5L97.2 1015.09L102.3 1030.7L89 1021.09L75.7 1030.7L80.8 1015.09L67.5 1005.39H83.9L89 989.681Z" fill="#BBCB50"/>
<path d="M751 1643.13L756.7 1660.74H775.2L760.3 1671.64L766 1689.25L751 1678.35L736 1689.25L741.7 1671.64L726.8 1660.74H745.3L751 1643.13Z" fill="#BBCB50"/>
<path d="M136 652.251L139.8 664.056H152.2L142.2 671.258L146 682.963L136 675.76L126 682.963L129.8 671.258L119.8 664.056H132.2L136 652.251Z" fill="#BBCB50"/>
<path d="M886 888.542L890.4 902.247H904.9L893.2 910.651L897.7 924.356L886 915.953L874.3 924.356L878.8 910.651L867.1 902.247H881.6L886 888.542Z" fill="#BBCB50"/>
<path d="M66 1839.11L67.5 1843.71H72.3L68.4 1846.51L69.9 1851.01L66 1848.21L62.1 1851.01L63.6 1846.51L59.7 1843.71H64.5L66 1839.11Z" fill="#BBCB50"/>
<path d="M273 1775.18L278.5 1792.09H296.3L281.9 1802.59L287.4 1819.6L273 1809.1L258.6 1819.6L264.1 1802.59L249.7 1792.09H267.5L273 1775.18Z" fill="#BBCB50"/>
<path d="M753 638.046L756 647.149H765.6L757.8 652.851L760.8 661.955L753 656.253L745.2 661.955L748.2 652.851L740.4 647.149H750L753 638.046Z" fill="#BBCB50"/>
<path d="M130 93.8361L133 102.94H142.6L134.8 108.642L137.8 117.745L130 112.043L122.2 117.745L125.2 108.642L117.4 102.94H127L130 93.8361Z" fill="#BBCB50"/>
<path d="M728 1022.79L733.3 1039.1H750.4L736.6 1049.2L741.9 1065.51L728 1055.41L714.1 1065.51L719.4 1049.2L705.6 1039.1H722.7L728 1022.79Z" fill="#BBCB50"/>
<path d="M592 1057.51L596 1069.91H609.1L598.5 1077.51L602.5 1089.92L592 1082.22L581.5 1089.92L585.5 1077.51L574.9 1069.91H588L592 1057.51Z" fill="#BBCB50"/>
<path d="M120 2192.14L124.9 2207.15H140.6L127.9 2216.45L132.8 2231.46L120 2222.16L107.2 2231.46L112.1 2216.45L99.4 2207.15H115.1L120 2192.14Z" fill="#BBCB50"/>
<path d="M151 1436.15L157.1 1455.06H177L160.9 1466.76L167.1 1485.67L151 1474.07L134.9 1485.67L141.1 1466.76L125 1455.06H144.9L151 1436.15Z" fill="#BBCB50"/>
<path d="M412 2541.68L418.4 2561.29H438.9L422.3 2573.29L428.6 2592.9L412 2580.79L395.4 2592.9L401.7 2573.29L385.1 2561.29H405.6L412 2541.68Z" fill="#BBCB50"/>
<path d="M802 2215.95L806.2 2229.06H820L808.9 2237.06L813.1 2250.17L802 2242.06L790.9 2250.17L795.1 2237.06L784 2229.06H797.8L802 2215.95Z" fill="#BBCB50"/>
<path d="M382 1379.53L385.6 1390.54H397.3L387.8 1397.44L391.4 1408.54L382 1401.64L372.6 1408.54L376.2 1397.44L366.7 1390.54H378.4L382 1379.53Z" fill="#BBCB50"/>
<path d="M663 363.64L668.5 380.546H686.3L671.9 391.051L677.4 408.057L663 397.553L648.6 408.057L654.1 391.051L639.7 380.546H657.5L663 363.64Z" fill="#BBCB50"/>
<path d="M568 2317.29L573.3 2333.6H590.4L576.6 2343.7L581.9 2360.01L568 2349.9L554.1 2360.01L559.4 2343.7L545.6 2333.6H562.7L568 2317.29Z" fill="#BBCB50"/>
<path d="M530 1385.73L534.4 1399.44H548.9L537.2 1407.84L541.7 1421.55L530 1413.14L518.3 1421.55L522.8 1407.84L511.1 1399.44H525.6L530 1385.73Z" fill="#BBCB50"/>
<path d="M803 1446.06L804.9 1451.96H811.1L806.1 1455.56L808 1461.46L803 1457.76L798 1461.46L799.9 1455.56L794.9 1451.96H801.1L803 1446.06Z" fill="#BBCB50"/>
<path d="M206 1094.72L210.9 1109.73H226.6L213.9 1119.03L218.8 1134.04L206 1124.73L193.2 1134.04L198.1 1119.03L185.4 1109.73H201.1L206 1094.72Z" fill="#BBCB50"/>
<path d="M726 802.609L731.1 818.315H747.5L734.2 828.019L739.3 843.625L726 834.021L712.7 843.625L717.8 828.019L704.5 818.315H720.9L726 802.609Z" fill="#BBCB50"/>
<path d="M228 1346.82L229.1 1350.02H232.5L229.7 1352.12L230.8 1355.32L228 1353.32L225.2 1355.32L226.3 1352.12L223.5 1350.02H226.9L228 1346.82Z" fill="#BBCB50"/>
<path d="M412 2241.06L412.8 2243.66H415.6L413.4 2245.26L414.2 2247.97L412 2246.26L409.8 2247.97L410.6 2245.26L408.4 2243.66H411.2L412 2241.06Z" fill="#BBCB50"/>
<path d="M338 853.128L341.2 862.932H351.5L343.1 869.035L346.3 878.838L338 872.736L329.7 878.838L332.9 869.035L324.5 862.932H334.8L338 853.128Z" fill="#BBCB50"/>
<path d="M439 968.273L442.4 978.677H453.4L444.5 985.179L447.9 995.583L439 989.181L430.1 995.583L433.5 985.179L424.6 978.677H435.6L439 968.273Z" fill="#BBCB50"/>
<path d="M248 340.931L251.2 350.735H261.5L253.1 356.837L256.3 366.641L248 360.539L239.7 366.641L242.9 356.837L234.5 350.735H244.8L248 340.931Z" fill="#BBCB50"/>
<path d="M281 1714.76L285 1727.17H298.1L287.5 1734.77L291.5 1747.17L281 1739.47L270.5 1747.17L274.5 1734.77L263.9 1727.17H277L281 1714.76Z" fill="#BBCB50"/>
<path d="M335 2454.65L341.4 2474.25H361.9L345.3 2486.26L351.6 2505.86L335 2493.76L318.4 2505.86L324.7 2486.26L308.1 2474.25H328.6L335 2454.65Z" fill="#BBCB50"/>
<path d="M651 2063.19L652.5 2067.8H657.3L653.4 2070.6L654.9 2075.1L651 2072.3L647.1 2075.1L648.6 2070.6L644.7 2067.8H649.5L651 2063.19Z" fill="#BBCB50"/>
<path d="M94 821.516L94.8 824.117H97.6L95.4 825.718L96.2 828.419L94 826.718L91.8 828.419L92.6 825.718L90.4 824.117H93.2L94 821.516Z" fill="#BBCB50"/>
<path d="M260 1397.84L264.9 1412.84H280.6L267.9 1422.15L272.8 1437.15L260 1427.85L247.2 1437.15L252.1 1422.15L239.4 1412.84H255.1L260 1397.84Z" fill="#BBCB50"/>
<path d="M905 1379.03L910.7 1396.64H929.2L914.3 1407.54L920 1425.15L905 1414.24L890 1425.15L895.7 1407.54L880.8 1396.64H899.3L905 1379.03Z" fill="#BBCB50"/>
<path d="M151 2549.58L157.1 2568.49H177L160.9 2580.19L167.1 2599.1L151 2587.5L134.9 2599.1L141.1 2580.19L125 2568.49H144.9L151 2549.58Z" fill="#BBCB50"/>
<path d="M840 2421.23L845.1 2436.94H861.5L848.2 2446.64L853.3 2462.25L840 2452.64L826.7 2462.25L831.8 2446.64L818.5 2436.94H834.9L840 2421.23Z" fill="#BBCB50"/>
<path d="M824 1559.9L829.1 1575.61H845.5L832.2 1585.31L837.3 1600.92L824 1591.31L810.7 1600.92L815.8 1585.31L802.5 1575.61H818.9L824 1559.9Z" fill="#BBCB50"/>
<path d="M657 2257.67L660 2266.77H669.6L661.8 2272.48L664.8 2281.58L657 2275.88L649.2 2281.58L652.2 2272.48L644.4 2266.77H654L657 2257.67Z" fill="#BBCB50"/>
<path d="M724 2001.37L729.9 2019.58H749.1L733.6 2030.88L739.5 2049.19L724 2037.88L708.5 2049.19L714.4 2030.88L698.9 2019.58H718.1L724 2001.37Z" fill="#BBCB50"/>
<path d="M339 1789.89L343.4 1803.59H357.9L346.2 1812L350.7 1825.7L339 1817.3L327.3 1825.7L331.8 1812L320.1 1803.59H334.6L339 1789.89Z" fill="#BBCB50"/>
<path d="M902 66.3255L903.3 70.3271H907.4L904.1 72.728L905.3 76.6295L902 74.2286L898.7 76.6295L899.9 72.728L896.6 70.3271H900.7L902 66.3255Z" fill="#BBCB50"/>
<path d="M190 -11.6045L195.3 4.70181H212.4L198.6 14.8057L203.9 31.112L190 21.0081L176.1 31.112L181.4 14.8057L167.6 4.70181H184.7L190 -11.6045Z" fill="#BBCB50"/>
<path d="M883 1160.75L884.3 1164.75H888.4L885.1 1167.15L886.3 1171.05L883 1168.65L879.7 1171.05L880.9 1167.15L877.6 1164.75H881.7L883 1160.75Z" fill="#BBCB50"/>
<path d="M291 2514.17L295.7 2528.57H310.7L298.5 2537.48L303.2 2551.78L291 2542.88L278.8 2551.78L283.5 2537.48L271.3 2528.57H286.3L291 2514.17Z" fill="#BBCB50"/>
<path d="M497 1155.04L499.1 1161.55H506L500.4 1165.55L502.5 1172.05L497 1168.05L491.5 1172.05L493.6 1165.55L488 1161.55H494.9L497 1155.04Z" fill="#BBCB50"/>
<path d="M392 1232.37L395.4 1242.78H406.4L397.5 1249.28L400.9 1259.69L392 1253.28L383.1 1259.69L386.5 1249.28L377.6 1242.78H388.6L392 1232.37Z" fill="#BBCB50"/>
<path d="M493 304.817L499.4 324.425H519.9L503.3 336.43L509.6 356.037L493 343.932L476.4 356.037L482.7 336.43L466.1 324.425H486.6L493 304.817Z" fill="#BBCB50"/>
<path d="M646 2186.54L648.5 2194.34H656.8L650.1 2199.15L652.7 2207.05L646 2202.15L639.3 2207.05L641.9 2199.15L635.2 2194.34H643.5L646 2186.54Z" fill="#BBCB50"/>
<path d="M323 2334.3L328.3 2350.6H345.4L331.6 2360.71L336.9 2377.02L323 2366.91L309.1 2377.02L314.4 2360.71L300.6 2350.6H317.7L323 2334.3Z" fill="#BBCB50"/>
<path d="M501 2021.68L504.4 2032.08H515.4L506.5 2038.58L509.9 2048.99L501 2042.59L492.1 2048.99L495.5 2038.58L486.6 2032.08H497.6L501 2021.68Z" fill="#BBCB50"/>
<path d="M42 1355.92L47.3 1372.23H64.4L50.6 1382.33L55.9 1398.64L42 1388.53L28.1 1398.64L33.4 1382.33L19.6 1372.23H36.7L42 1355.92Z" fill="#BBCB50"/>
<path d="M430 3.40131L431.5 8.00308H436.3L432.4 10.8042L433.9 15.3059L430 12.5048L426.1 15.3059L427.6 10.8042L423.7 8.00308H428.5L430 3.40131Z" fill="#BBCB50"/>
<path d="M166 1671.34L172.6 1691.65H193.8L176.6 1704.16L183.2 1724.36L166 1711.86L148.8 1724.36L155.4 1704.16L138.2 1691.65H159.4L166 1671.34Z" fill="#BBCB50"/>
<path d="M55 549.712L60.5 566.618H78.2999L63.8999 577.122L69.3999 594.129L55 583.625L40.6 594.129L46.1 577.122L31.7 566.618H49.5L55 549.712Z" fill="#BBCB50"/>
<path d="M822 2588.3L823.3 2592.3H827.4L824.1 2594.7L825.3 2598.6L822 2596.2L818.7 2598.6L819.9 2594.7L816.6 2592.3H820.7L822 2588.3Z" fill="#BBCB50"/>
<path d="M6.00002 1761.98L10.9 1776.98H26.6L13.9 1786.29L18.8 1801.29L6.00002 1791.99L-6.79998 1801.29L-1.89997 1786.29L-14.6 1776.98H1.10003L6.00002 1761.98Z" fill="#BBCB50"/>
<path d="M33 2110.31L38.7 2127.92H57.2L42.3 2138.82L48 2156.43L33 2145.53L18 2156.43L23.7 2138.82L8.79999 2127.92H27.3L33 2110.31Z" fill="#BBCB50"/>
<path d="M796 222.186L800 234.59H813.1L802.5 242.193L806.5 254.598L796 246.895L785.5 254.598L789.5 242.193L778.9 234.59H792L796 222.186Z" fill="#BBCB50"/>
<path d="M145 1544.79L149.4 1558.5H163.9L152.2 1566.9L156.7 1580.61L145 1572.21L133.3 1580.61L137.8 1566.9L126.1 1558.5H140.6L145 1544.79Z" fill="#BBCB50"/>
<path d="M877 1794.99L878.1 1798.19H881.5L878.7 1800.29L879.8 1803.49L877 1801.49L874.2 1803.49L875.3 1800.29L872.5 1798.19H875.9L877 1794.99Z" fill="#BBCB50"/>
<path d="M395 2363.01L399.2 2376.12H413L401.9 2384.12L406.1 2397.22L395 2389.12L383.9 2397.22L388.1 2384.12L377 2376.12H390.8L395 2363.01Z" fill="#BBCB50"/>
<path d="M85 1951.05L86.1 1954.25H89.5L86.7 1956.35L87.8 1959.55L85 1957.55L82.2 1959.55L83.3 1956.35L80.5 1954.25H83.9L85 1951.05Z" fill="#BBCB50"/>
<path d="M585 2484.76L588 2493.86H597.6L589.8 2499.56L592.8 2508.67L585 2502.96L577.2 2508.67L580.2 2499.56L572.4 2493.86H582L585 2484.76Z" fill="#BBCB50"/>
<path d="M749 1296L754.7 1313.61H773.2L758.3 1324.51L764 1342.12L749 1331.21L734 1342.12L739.7 1324.51L724.8 1313.61H743.3L749 1296Z" fill="#BBCB50"/>
<path d="M434 2287.58L440.4 2307.19H460.9L444.3 2319.19L450.6 2338.8L434 2326.7L417.4 2338.8L423.7 2319.19L407.1 2307.19H427.6L434 2287.58Z" fill="#BBCB50"/>
<path d="M711 2530.97L714.8 2542.78H727.2L717.2 2549.98L721 2561.69L711 2554.48L701 2561.69L704.8 2549.98L694.8 2542.78H707.2L711 2530.97Z" fill="#BBCB50"/>
<path d="M26 1067.91L31.5 1084.82H49.3L34.9 1095.32L40.4 1112.33L26 1101.82L11.6 1112.33L17.1 1095.32L2.70001 1084.82H20.5L26 1067.91Z" fill="#BBCB50"/>
<path d="M615 191.674L617.3 198.877H624.9L618.8 203.278L621.1 210.481L615 206.079L608.9 210.481L611.2 203.278L605.1 198.877H612.7L615 191.674Z" fill="#BBCB50"/>
<path d="M174 1032.6L178.7 1047H193.7L181.5 1055.91L186.2 1070.21L174 1061.31L161.8 1070.21L166.5 1055.91L154.3 1047H169.3L174 1032.6Z" fill="#BBCB50"/>
<path d="M733 701.97L735.8 710.474H744.7L737.5 715.676L740.2 724.179L733 718.977L725.8 724.179L728.5 715.676L721.3 710.474H730.2L733 701.97Z" fill="#BBCB50"/>
<path d="M864 2004.37L869.9 2022.58H889.1L873.6 2033.88L879.5 2052.19L864 2040.89L848.5 2052.19L854.4 2033.88L838.9 2022.58H858.1L864 2004.37Z" fill="#BBCB50"/>
<path d="M5.00001 1005.39L8.60001 1016.39H20.3L10.8 1023.29L14.4 1034.4L5.00001 1027.5L-4.39999 1034.4L-0.799988 1023.29L-10.3 1016.39H1.40001L5.00001 1005.39Z" fill="#BBCB50"/>
<path d="M822 2067.8L825.6 2078.8H837.3L827.8 2085.7L831.4 2096.81L822 2089.9L812.6 2096.81L816.2 2085.7L806.7 2078.8H818.4L822 2067.8Z" fill="#BBCB50"/>
<path d="M667 736.384L671.2 749.489H685L673.9 757.492L678.1 770.597L667 762.494L655.9 770.597L660.1 757.492L649 749.489H662.8L667 736.384Z" fill="#BBCB50"/>
<path d="M654 1907.33L656.3 1914.54H663.9L657.8 1918.94L660.1 1926.14L654 1921.74L647.9 1926.14L650.2 1918.94L644.1 1914.54H651.7L654 1907.33Z" fill="#BBCB50"/>
<path d="M592 1874.52L595.2 1884.33H605.5L597.1 1890.43L600.3 1900.23L592 1894.13L583.7 1900.23L586.9 1890.43L578.5 1884.33H588.8L592 1874.52Z" fill="#BBCB50"/>
<path d="M892 1253.68L896.4 1267.39H910.9L899.2 1275.79L903.7 1289.5L892 1281.09L880.3 1289.5L884.8 1275.79L873.1 1267.39H887.6L892 1253.68Z" fill="#BBCB50"/>
<path d="M113 -8.10312L116.4 2.30089H127.4L118.5 8.80339L121.9 19.2074L113 12.8049L104.1 19.2074L107.5 8.80339L98.6 2.30089H109.6L113 -8.10312Z" fill="#BBCB50"/>
<path d="M306 1443.06L311.5 1459.96H329.3L314.9 1470.47L320.4 1487.47L306 1476.97L291.6 1487.47L297.1 1470.47L282.7 1459.96H300.5L306 1443.06Z" fill="#BBCB50"/>
<path d="M704 532.505L709.1 548.211H725.5L712.2 557.915L717.3 573.521L704 563.917L690.7 573.521L695.8 557.915L682.5 548.211H698.9L704 532.505Z" fill="#BBCB50"/>
<path d="M571 121.647L576.9 139.854H596.1L580.6 151.158L586.5 169.465L571 158.161L555.5 169.465L561.4 151.158L545.9 139.854H565.1L571 121.647Z" fill="#BBCB50"/>
<path d="M811 820.316L814.6 831.32H826.3L816.8 838.223L820.4 849.327L811 842.424L801.6 849.327L805.2 838.223L795.7 831.32H807.4L811 820.316Z" fill="#BBCB50"/>
<path d="M823 2358.21L828.1 2373.91H844.5L831.2 2383.62L836.3 2399.22L823 2389.62L809.7 2399.22L814.8 2383.62L801.5 2373.91H817.9L823 2358.21Z" fill="#BBCB50"/>
<path d="M358 2038.99L358.8 2041.59H361.6L359.4 2043.19L360.2 2045.89L358 2044.19L355.8 2045.89L356.6 2043.19L354.4 2041.59H357.2L358 2038.99Z" fill="#BBCB50"/>
<path d="M4.00001 352.836L10.6 373.144H31.8L14.6 385.648L21.2 405.856L4.00001 393.351L-13.2 405.856L-6.59999 385.648L-23.8 373.144H-2.59999L4.00001 352.836Z" fill="#BBCB50"/>
<path d="M574 2582.29L575.3 2586.3H579.4L576.1 2588.7L577.3 2592.6L574 2590.2L570.7 2592.6L571.9 2588.7L568.6 2586.3H572.7L574 2582.29Z" fill="#BBCB50"/>
<path d="M576 439.569L577.7 444.871H583.2L578.7 448.072L580.4 453.274L576 450.073L571.6 453.274L573.3 448.072L568.8 444.871H574.3L576 439.569Z" fill="#BBCB50"/>
<path d="M562 2398.92L565.6 2409.93H577.3L567.8 2416.83L571.4 2427.93L562 2421.03L552.6 2427.93L556.2 2416.83L546.7 2409.93H558.4L562 2398.92Z" fill="#BBCB50"/>
<path d="M496 1671.34L502.4 1690.95H522.9L506.3 1702.96L512.6 1722.56L496 1710.46L479.4 1722.56L485.7 1702.96L469.1 1690.95H489.6L496 1671.34Z" fill="#BBCB50"/>
<path d="M232 1663.14L237.5 1680.05H255.3L240.9 1690.55L246.4 1707.56L232 1697.05L217.6 1707.56L223.1 1690.55L208.7 1680.05H226.5L232 1663.14Z" fill="#BBCB50"/>
<path d="M716 1461.96L717.5 1466.56H722.3L718.4 1469.37L719.9 1473.87L716 1471.07L712.1 1473.87L713.6 1469.37L709.7 1466.56H714.5L716 1461.96Z" fill="#BBCB50"/>
<path d="M760 331.628L765.5 348.534H783.3L768.9 359.038L774.4 376.045L760 365.541L745.6 376.045L751.1 359.038L736.7 348.534H754.5L760 331.628Z" fill="#BBCB50"/>
<path d="M755 1104.83L756.7 1110.13H762.2L757.7 1113.33L759.4 1118.53L755 1115.33L750.6 1118.53L752.3 1113.33L747.8 1110.13H753.3L755 1104.83Z" fill="#BBCB50"/>
<path d="M137 1363.12L139.1 1369.63H146L140.4 1373.63L142.5 1380.13L137 1376.13L131.5 1380.13L133.6 1373.63L128 1369.63H134.9L137 1363.12Z" fill="#BBCB50"/>
<path d="M463 851.028L469.4 870.635H489.9L473.3 882.64L479.6 902.247L463 890.143L446.4 902.247L452.7 882.64L436.1 870.635H456.6L463 851.028Z" fill="#BBCB50"/>
<path d="M123 1786.89L127.4 1800.59H141.9L130.2 1809L134.7 1822.7L123 1814.3L111.3 1822.7L115.8 1809L104.1 1800.59H118.6L123 1786.89Z" fill="#BBCB50"/>
<path d="M121 1097.22L124.2 1107.03H134.5L126.1 1113.13L129.3 1122.93L121 1116.83L112.7 1122.93L115.9 1113.13L107.5 1107.03H117.8L121 1097.22Z" fill="#BBCB50"/>
<path d="M632 1248.68L636.7 1263.09H651.7L639.5 1271.99L644.2 1286.3L632 1277.39L619.8 1286.3L624.5 1271.99L612.3 1263.09H627.3L632 1248.68Z" fill="#BBCB50"/>
<path d="M326 2113.51L332.4 2133.12H352.9L336.3 2145.13L342.6 2164.73L326 2152.63L309.4 2164.73L315.7 2145.13L299.1 2133.12H319.6L326 2113.51Z" fill="#BBCB50"/>
<path d="M93 1165.15L95.5 1172.95H103.8L97.1 1177.75L99.7 1185.66L93 1180.75L86.3 1185.66L88.9 1177.75L82.2 1172.95H90.5L93 1165.15Z" fill="#BBCB50"/>
<path d="M571 1116.03L577.1 1134.94H597L580.9 1146.64L587.1 1165.55L571 1153.94L554.9 1165.55L561.1 1146.64L545 1134.94H564.9L571 1116.03Z" fill="#BBCB50"/>
<path d="M220 545.31L224.2 558.415H238L226.9 566.418L231.1 579.523L220 571.42L208.9 579.523L213.1 566.418L202 558.415H215.8L220 545.31Z" fill="#BBCB50"/>
<path d="M465 157.661L467.1 164.163H474L468.4 168.165L470.5 174.667L465 170.666L459.5 174.667L461.6 168.165L456 164.163H462.9L465 157.661Z" fill="#BBCB50"/>
<path d="M649 437.769L654.9 455.976H674.1L658.6 467.28L664.5 485.587L649 474.283L633.5 485.587L639.4 467.28L623.9 455.976H643.1L649 437.769Z" fill="#BBCB50"/>
<path d="M36 635.745L37.9 641.647H44.1L39.1 645.248L41 651.151L36 647.449L31 651.151L32.9 645.248L27.9 641.647H34.1L36 635.745Z" fill="#BBCB50"/>
<path d="M277 975.676L278.1 978.877H281.5L278.7 980.978L279.8 984.179L277 982.178L274.2 984.179L275.3 980.978L272.5 978.877H275.9L277 975.676Z" fill="#BBCB50"/>
<path d="M147 163.363L152.1 179.069H168.5L155.2 188.773L160.3 204.379L147 194.775L133.7 204.379L138.8 188.773L125.5 179.069H141.9L147 163.363Z" fill="#BBCB50"/>
<path d="M609 1432.95L614.3 1449.26H631.4L617.6 1459.36L622.9 1475.67L609 1465.56L595.1 1475.67L600.4 1459.36L586.6 1449.26H603.7L609 1432.95Z" fill="#BBCB50"/>
<path d="M906 800.908L912.1 819.816H932L915.9 831.52L922.1 850.427L906 838.823L889.9 850.427L896.1 831.52L880 819.816H899.9L906 800.908Z" fill="#BBCB50"/>
<path d="M792 2516.27L793.3 2520.27H797.4L794.1 2522.67L795.3 2526.57L792 2524.17L788.7 2526.57L789.9 2522.67L786.6 2520.27H790.7L792 2516.27Z" fill="#BBCB50"/>
<path d="M844 412.559L845.5 417.161H850.3L846.4 419.962L847.9 424.463L844 421.662L840.1 424.463L841.6 419.962L837.7 417.161H842.5L844 412.559Z" fill="#BBCB50"/>
<path d="M560 838.523L564.4 852.228H578.9L567.2 860.631L571.7 874.337L560 865.933L548.3 874.337L552.8 860.631L541.1 852.228H555.6L560 838.523Z" fill="#BBCB50"/>
<path d="M146 2478.55L148.1 2485.06H155L149.4 2489.06L151.5 2495.56L146 2491.56L140.5 2495.56L142.6 2489.06L137 2485.06H143.9L146 2478.55Z" fill="#BBCB50"/>
<path d="M205 2496.66L211.4 2516.27H231.9L215.3 2528.27L221.6 2547.88L205 2535.78L188.4 2547.88L194.7 2528.27L178.1 2516.27H198.6L205 2496.66Z" fill="#BBCB50"/>
<path d="M550 593.529L554.9 608.534H570.6L557.9 617.838L562.8 632.844L550 623.54L537.2 632.844L542.1 617.838L529.4 608.534H545.1L550 593.529Z" fill="#BBCB50"/>
<path d="M519 1830L523.9 1845.01H539.6L526.9 1854.31L531.8 1869.32L519 1860.02L506.2 1869.32L511.1 1854.31L498.4 1845.01H514.1L519 1830Z" fill="#BBCB50"/>
<path d="M354 1133.74L358.9 1148.74H374.6L361.9 1158.05L366.8 1173.05L354 1163.75L341.2 1173.05L346.1 1158.05L333.4 1148.74H349.1L354 1133.74Z" fill="#BBCB50"/>
<path d="M221 477.884L223.5 485.687H231.8L225.1 490.489L227.7 498.392L221 493.49L214.3 498.392L216.9 490.489L210.2 485.687H218.5L221 477.884Z" fill="#BBCB50"/>
<path d="M814 1140.14L816.8 1148.64H825.7L818.5 1153.84L821.2 1162.35L814 1157.15L806.8 1162.35L809.5 1153.84L802.3 1148.64H811.2L814 1140.14Z" fill="#BBCB50"/>
<path d="M212 1214.87L217.3 1231.17H234.4L220.6 1241.28L225.9 1257.58L212 1247.48L198.1 1257.58L203.4 1241.28L189.6 1231.17H206.7L212 1214.87Z" fill="#BBCB50"/>
<path d="M758 2297.68L761 2306.79H770.6L762.8 2312.49L765.8 2321.59L758 2315.89L750.2 2321.59L753.2 2312.49L745.4 2306.79H755L758 2297.68Z" fill="#BBCB50"/>
<path d="M681 1290.1L687.1 1309H707L690.9 1320.71L697.1 1339.62L681 1328.01L664.9 1339.62L671.1 1320.71L655 1309H674.9L681 1290.1Z" fill="#BBCB50"/>
<path d="M159 595.729L160.9 601.632H167.1L162.1 605.233L164 611.135L159 607.434L154 611.135L155.9 605.233L150.9 601.632H157.1L159 595.729Z" fill="#BBCB50"/>
<path d="M598 660.554L599.3 664.556H603.4L600.1 666.957L601.3 670.858L598 668.457L594.7 670.858L595.9 666.957L592.6 664.556H596.7L598 660.554Z" fill="#BBCB50"/>
<path d="M142 948.665L146.9 963.671H162.6L149.9 972.975L154.8 987.98L142 978.677L129.2 987.98L134.1 972.975L121.4 963.671H137.1L142 948.665Z" fill="#BBCB50"/>
<path d="M245 2312.49L247.1 2318.99H254L248.4 2322.99L250.5 2329.5L245 2325.5L239.5 2329.5L241.6 2322.99L236 2318.99H242.9L245 2312.49Z" fill="#BBCB50"/>
<path d="M3.00002 42.2162L3.80002 44.8172H6.60002L4.40002 46.4179L5.20002 49.1189L3.00002 47.4183L0.800024 49.1189L1.60002 46.4179L-0.599976 44.8172H2.20002L3.00002 42.2162Z" fill="#BBCB50"/>
<path d="M336 1288.6L340 1301H353.1L342.5 1308.6L346.5 1321.01L336 1313.31L325.5 1321.01L329.5 1308.6L318.9 1301H332L336 1288.6Z" fill="#BBCB50"/>
<path d="M291 1029.4L294.6 1040.4H306.3L296.8 1047.3L300.4 1058.41L291 1051.5L281.6 1058.41L285.2 1047.3L275.7 1040.4H287.4L291 1029.4Z" fill="#BBCB50"/>
<path d="M500 1773.18L501.9 1779.09H508.1L503.1 1782.69L505 1788.59L500 1784.89L495 1788.59L496.9 1782.69L491.9 1779.09H498.1L500 1773.18Z" fill="#BBCB50"/>
<path d="M106 2128.22L107.5 2132.82H112.3L108.4 2135.62L109.9 2140.12L106 2137.32L102.1 2140.12L103.6 2135.62L99.7 2132.82H104.5L106 2128.22Z" fill="#BBCB50"/>
<path d="M191 2193.64L194.2 2203.45H204.5L196.1 2209.55L199.3 2219.35L191 2213.25L182.7 2219.35L185.9 2209.55L177.5 2203.45H187.8L191 2193.64Z" fill="#BBCB50"/>
<path d="M699 307.318L703.7 321.724H718.7L706.5 330.627L711.2 344.933L699 336.029L686.8 344.933L691.5 330.627L679.3 321.724H694.3L699 307.318Z" fill="#BBCB50"/>
<path d="M3.00002 2432.24L7.90002 2447.24H23.6L10.9 2456.55L15.8 2471.55L3.00002 2462.25L-9.79998 2471.55L-4.89997 2456.55L-17.6 2447.24H-1.89997L3.00002 2432.24Z" fill="#BBCB50"/>
<path d="M274 -5.30204L276.5 2.50096H284.8L278.1 7.30281L280.7 15.2059L274 10.304L267.3 15.2059L269.9 7.30281L263.2 2.50096H271.5L274 -5.30204Z" fill="#BBCB50"/>
<path d="M224 2024.98L228.7 2039.39H243.7L231.5 2048.29L236.2 2062.59L224 2053.69L211.8 2062.59L216.5 2048.29L204.3 2039.39H219.3L224 2024.98Z" fill="#BBCB50"/>
<path d="M592 346.834L598.6 367.141H619.8L602.6 379.646L609.2 399.854L592 387.349L574.8 399.854L581.4 379.646L564.2 367.141H585.4L592 346.834Z" fill="#BBCB50"/>
<path d="M521 1023.99L527.1 1042.9H547L530.9 1054.61L537.1 1073.51L521 1061.91L504.9 1073.51L511.1 1054.61L495 1042.9H514.9L521 1023.99Z" fill="#BBCB50"/>
<path d="M466 2103.01L466.8 2105.61H469.6L467.4 2107.21L468.2 2109.91L466 2108.21L463.8 2109.91L464.6 2107.21L462.4 2105.61H465.2L466 2103.01Z" fill="#BBCB50"/>
<path d="M451 1375.23L453.8 1383.73H462.7L455.5 1388.93L458.2 1397.44L451 1392.24L443.8 1397.44L446.5 1388.93L439.3 1383.73H448.2L451 1375.23Z" fill="#BBCB50"/>
<path d="M461 1203.66L465.7 1218.07H480.7L468.5 1226.97L473.2 1241.28L461 1232.37L448.8 1241.28L453.5 1226.97L441.3 1218.07H456.3L461 1203.66Z" fill="#BBCB50"/>
<path d="M658 588.026L661 597.13H670.6L662.8 602.832L665.8 611.936L658 606.233L650.2 611.936L653.2 602.832L645.4 597.13H655L658 588.026Z" fill="#BBCB50"/>
<path d="M571 2237.46L576.9 2255.67H596.1L580.6 2266.97L586.5 2285.28L571 2273.98L555.5 2285.28L561.4 2266.97L545.9 2255.67H565.1L571 2237.46Z" fill="#BBCB50"/>
<path d="M17 504.994L20 514.098H29.6L21.8 519.8L24.8 528.904L17 523.201L9.20002 528.904L12.2 519.8L4.40002 514.098H14L17 504.994Z" fill="#BBCB50"/>
<path d="M206 673.859L208.1 680.362H215L209.4 684.363L211.5 690.866L206 686.864L200.5 690.866L202.6 684.363L197 680.362H203.9L206 673.859Z" fill="#BBCB50"/>
<path d="M766 172.366L767.1 175.568H770.5L767.7 177.668L768.8 180.87L766 178.869L763.2 180.87L764.3 177.668L761.5 175.568H764.9L766 172.366Z" fill="#BBCB50"/>
<path d="M637 2557.28L638.3 2561.29H642.4L639.1 2563.69L640.3 2567.59L637 2565.19L633.7 2567.59L634.9 2563.69L631.6 2561.29H635.7L637 2557.28Z" fill="#BBCB50"/>
<path d="M160 1628.83L160.8 1631.43H163.6L161.4 1633.03L162.2 1635.73L160 1634.03L157.8 1635.73L158.6 1633.03L156.4 1631.43H159.2L160 1628.83Z" fill="#BBCB50"/>
<path d="M7.99999 752.29L11.8 764.094H24.2L14.2 771.297L18 783.001L7.99999 775.799L-2.00001 783.001L1.79999 771.297L-8.20001 764.094H4.19999L7.99999 752.29Z" fill="#BBCB50"/>
<path d="M190 1924.34L192.1 1930.84H199L193.4 1934.85L195.5 1941.35L190 1937.35L184.5 1941.35L186.6 1934.85L181 1930.84H187.9L190 1924.34Z" fill="#BBCB50"/>
<path d="M235 893.444L239.2 906.549H253L241.9 914.552L246.1 927.657L235 919.554L223.9 927.657L228.1 914.552L217 906.549H230.8L235 893.444Z" fill="#BBCB50"/>
<path d="M230 1469.07L235.7 1486.67H254.2L239.3 1497.58L245 1515.18L230 1504.28L215 1515.18L220.7 1497.58L205.8 1486.67H224.3L230 1469.07Z" fill="#BBCB50"/>
<path d="M897 1073.51L901.2 1086.62H915L903.9 1094.62L908.1 1107.73L897 1099.62L885.9 1107.73L890.1 1094.62L879 1086.62H892.8L897 1073.51Z" fill="#BBCB50"/>
<path d="M10 1484.27L16.6 1504.58H37.8L20.6 1517.08L27.2 1537.29L10 1524.79L-7.19999 1537.29L-0.599989 1517.08L-17.8 1504.58H3.40001L10 1484.27Z" fill="#BBCB50"/>
<path d="M688 2136.02L688.8 2138.62H691.6L689.4 2140.22L690.2 2142.93L688 2141.22L685.8 2142.93L686.6 2140.22L684.4 2138.62H687.2L688 2136.02Z" fill="#BBCB50"/>
<path d="M314 2592.4L315.5 2597H320.3L316.4 2599.8L317.9 2604.3L314 2601.5L310.1 2604.3L311.6 2599.8L307.7 2597H312.5L314 2592.4Z" fill="#BBCB50"/>
<path d="M382 1571.71L386.2 1584.81H400L388.9 1592.81L393.1 1605.92L382 1597.82L370.9 1605.92L375.1 1592.81L364 1584.81H377.8L382 1571.71Z" fill="#BBCB50"/>
<path d="M51 2581.79L54.2 2591.6H64.5L56.1 2597.7L59.3 2607.5L51 2601.4L42.7 2607.5L45.9 2597.7L37.5 2591.6H47.8L51 2581.79Z" fill="#BBCB50"/>
<path d="M591 715.275L594.8 727.08H607.2L597.2 734.283L601 745.987L591 738.784L581 745.987L584.8 734.283L574.8 727.08H587.2L591 715.275Z" fill="#BBCB50"/>
<path d="M753 82.5318L758.5 99.4383H776.3L761.9 109.942L767.4 126.949L753 116.445L738.6 126.949L744.1 109.942L729.7 99.4383H747.5L753 82.5318Z" fill="#BBCB50"/>
<path d="M370 681.763L371.9 687.665H378.1L373.1 691.266L375 697.168L370 693.467L365 697.168L366.9 691.266L361.9 687.665H368.1L370 681.763Z" fill="#BBCB50"/>
<path d="M650 1377.23L656.4 1396.84H676.9L660.3 1408.84L666.6 1428.45L650 1416.35L633.4 1428.45L639.7 1408.84L623.1 1396.84H643.6L650 1377.23Z" fill="#BBCB50"/>
<path d="M166 892.944L168.3 900.147H175.9L169.8 904.548L172.1 911.751L166 907.349L159.9 911.751L162.2 904.548L156.1 900.147H163.7L166 892.944Z" fill="#BBCB50"/>
<path d="M512 103.64L514.1 110.142H521L515.4 114.144L517.5 120.646L512 116.645L506.5 120.646L508.6 114.144L503 110.142H509.9L512 103.64Z" fill="#BBCB50"/>
<path d="M355 448.473L360.1 464.179H376.5L363.2 473.882L368.3 489.488L355 479.885L341.7 489.488L346.8 473.882L333.5 464.179H349.9L355 448.473Z" fill="#BBCB50"/>
<path d="M60 2265.37L61.9 2271.27H68.1L63.1 2274.88L65 2280.78L60 2277.08L55 2280.78L56.9 2274.88L51.9 2271.27H58.1L60 2265.37Z" fill="#BBCB50"/>
<path d="M892 1541.69L896 1554.1H909.1L898.5 1561.7L902.5 1574.11L892 1566.4L881.5 1574.11L885.5 1561.7L874.9 1554.1H888L892 1541.69Z" fill="#BBCB50"/>
<path d="M715 872.736L720.3 889.042H737.4L723.6 899.146L728.9 915.453L715 905.349L701.1 915.453L706.4 899.146L692.6 889.042H709.7L715 872.736Z" fill="#BBCB50"/>
<path d="M634 982.879L639.7 1000.49H658.2L643.3 1011.39L649 1029L634 1018.09L619 1029L624.7 1011.39L609.8 1000.49H628.3L634 982.879Z" fill="#BBCB50"/>
<path d="M505 2575.29L509.9 2590.3H525.6L512.9 2599.6L517.8 2614.61L505 2605.3L492.2 2614.61L497.1 2599.6L484.4 2590.3H500.1L505 2575.29Z" fill="#BBCB50"/>
<path d="M68 1436.85L72.9 1451.86H88.6L75.9 1461.16L80.8 1476.17L68 1466.86L55.2 1476.17L60.1 1461.16L47.4 1451.86H63.1L68 1436.85Z" fill="#BBCB50"/>
<path d="M890 2108.51L892.5 2116.31H900.8L894.1 2121.12L896.7 2129.02L890 2124.12L883.3 2129.02L885.9 2121.12L879.2 2116.31H887.5L890 2108.51Z" fill="#BBCB50"/>
<path d="M659 1067.61L659.8 1070.21H662.6L660.4 1071.81L661.2 1074.51L659 1072.81L656.8 1074.51L657.6 1071.81L655.4 1070.21H658.2L659 1067.61Z" fill="#BBCB50"/>
<path d="M652 -10.304L654.8 -1.8007H663.7L656.5 3.40131L659.2 11.9046L652 6.70258L644.8 11.9046L647.5 3.40131L640.3 -1.8007H649.2L652 -10.304Z" fill="#BBCB50"/>
<path d="M286 2393.02L290.2 2406.13H304L292.9 2414.13L297.1 2427.23L286 2419.13L274.9 2427.23L279.1 2414.13L268 2406.13H281.8L286 2393.02Z" fill="#BBCB50"/>
<path d="M555 965.872L560.7 983.479H579.2L564.3 994.383L570 1011.99L555 1001.09L540 1011.99L545.7 994.383L530.8 983.479H549.3L555 965.872Z" fill="#BBCB50"/>
<path d="M605 2111.11L606.3 2115.11H610.4L607.1 2117.52L608.3 2121.42L605 2119.02L601.7 2121.42L602.9 2117.52L599.6 2115.11H603.7L605 2111.11Z" fill="#BBCB50"/>
<path d="M375 1844.21L380.7 1861.82H399.2L384.3 1872.72L390 1890.33L375 1879.42L360 1890.33L365.7 1872.72L350.8 1861.82H369.3L375 1844.21Z" fill="#BBCB50"/>
<path d="M242 1167.15L244.8 1175.65H253.7L246.5 1180.85L249.2 1189.36L242 1184.16L234.8 1189.36L237.5 1180.85L230.3 1175.65H239.2L242 1167.15Z" fill="#BBCB50"/>
<path d="M917 280.708L922.9 298.915H942.1L926.6 310.219L932.5 328.526L917 317.222L901.5 328.526L907.4 310.219L891.9 298.915H911.1L917 280.708Z" fill="#BBCB50"/>
<path d="M77 142.655L82.9 160.862H102.1L86.6 172.166L92.5 190.473L77 179.169L61.5 190.473L67.4 172.166L51.9 160.862H71.1L77 142.655Z" fill="#BBCB50"/>
<path d="M2.00002 288.911L5.00002 298.015H14.6L6.80003 303.717L9.80003 312.82L2.00002 307.118L-5.79998 312.82L-2.79998 303.717L-10.6 298.015H-0.999975L2.00002 288.911Z" fill="#BBCB50"/>
<path d="M727 1527.89L732.1 1543.59H748.5L735.2 1553.3L740.3 1568.9L727 1559.3L713.7 1568.9L718.8 1553.3L705.5 1543.59H721.9L727 1527.89Z" fill="#BBCB50"/>
<path d="M673 1638.33L679.4 1657.94H699.9L683.3 1669.94L689.6 1689.55L673 1677.45L656.4 1689.55L662.7 1669.94L646.1 1657.94H666.6L673 1638.33Z" fill="#BBCB50"/>
<path d="M2.00002 1305.6L6.00002 1318.01H19.1L8.50002 1325.61L12.5 1338.02L2.00002 1330.31L-8.49998 1338.02L-4.49998 1325.61L-15.1 1318.01H-1.99998L2.00002 1305.6Z" fill="#BBCB50"/>
<path d="M79 2004.37L84.9 2022.58H104.1L88.6 2033.88L94.5 2052.19L79 2040.89L63.5 2052.19L69.4 2033.88L53.9 2022.58H73.1L79 2004.37Z" fill="#BBCB50"/>
<path d="M825 2284.58L827.8 2293.08H836.7L829.5 2298.28L832.2 2306.79L825 2301.59L817.8 2306.79L820.5 2298.28L813.3 2293.08H822.2L825 2284.58Z" fill="#BBCB50"/>
<path d="M83 395.152L86.6 406.156H98.3L88.8 413.059L92.4 424.163L83 417.261L73.6 424.163L77.2 413.059L67.7 406.156H79.4L83 395.152Z" fill="#BBCB50"/>
<path d="M741 255.398L745.9 270.404H761.6L748.9 279.708L753.8 294.713L741 285.41L728.2 294.713L733.1 279.708L720.4 270.404H736.1L741 255.398Z" fill="#BBCB50"/>
<path d="M889 2571.39L894.3 2587.7H911.4L897.6 2597.8L902.9 2614.11L889 2604L875.1 2614.11L880.4 2597.8L866.6 2587.7H883.7L889 2571.39Z" fill="#BBCB50"/>
<path d="M518 2203.15L522.9 2218.15H538.6L525.9 2227.46L530.8 2242.46L518 2233.16L505.2 2242.46L510.1 2227.46L497.4 2218.15H513.1L518 2203.15Z" fill="#BBCB50"/>
<path d="M893 607.634L898.3 623.94H915.4L901.6 634.044L906.9 650.35L893 640.247L879.1 650.35L884.4 634.044L870.6 623.94H887.7L893 607.634Z" fill="#BBCB50"/>
<path d="M858 722.178L861.4 732.582H872.4L863.5 739.085L866.9 749.489L858 743.086L849.1 749.489L852.5 739.085L843.6 732.582H854.6L858 722.178Z" fill="#BBCB50"/>
<path d="M462 248.596L467.7 266.202H486.2L471.3 277.107L477 294.713L462 283.809L447 294.713L452.7 277.107L437.8 266.202H456.3L462 248.596Z" fill="#BBCB50"/>
<path d="M188 2265.47L190.1 2271.97H197L191.4 2275.98L193.5 2282.48L188 2278.48L182.5 2282.48L184.6 2275.98L179 2271.97H185.9L188 2265.47Z" fill="#BBCB50"/>
<path d="M753 1172.05L755.3 1179.25H762.9L756.8 1183.66L759.1 1190.86L753 1186.46L746.9 1190.86L749.2 1183.66L743.1 1179.25H750.7L753 1172.05Z" fill="#BBCB50"/>
<path d="M157 778.8L162.7 796.407H181.2L166.3 807.311L172 824.918L157 814.013L142 824.918L147.7 807.311L132.8 796.407H151.3L157 778.8Z" fill="#BBCB50"/>
<path d="M310 1861.12L311.7 1866.42H317.2L312.7 1869.62L314.4 1874.82L310 1871.62L305.6 1874.82L307.3 1869.62L302.8 1866.42H308.3L310 1861.12Z" fill="#BBCB50"/>
</g>
<defs>
<clipPath id="clip0_86_3">
<rect width="1280" height="2601" fill="white"/>
</clipPath>
</defs>
</svg>
