<svg width="1279" height="2594" viewBox="0 0 1279 2594" fill="none" xmlns="http://www.w3.org/2000/svg">
<g clip-path="url(#clip0_56_23)">
<path d="M1279 0H-1V2600H1279V0Z" fill="#CF829B"/>
<path d="M741 712C850.905 712 940 622.905 940 513C940 403.095 850.905 314 741 314C631.095 314 542 403.095 542 513C542 622.905 631.095 712 741 712Z" fill="#F1AF6A"/>
<path d="M136 634C149.807 634 161 622.807 161 609C161 595.193 149.807 584 136 584C122.193 584 111 595.193 111 609C111 622.807 122.193 634 136 634Z" fill="#F1AF6A"/>
<path d="M344 2504C400.885 2504 447 2457.89 447 2401C447 2344.11 400.885 2298 344 2298C287.115 2298 241 2344.11 241 2401C241 2457.89 287.115 2504 344 2504Z" fill="#F1AF6A"/>
<path d="M1268 2643C1356.37 2643 1428 2571.37 1428 2483C1428 2394.63 1356.37 2323 1268 2323C1179.63 2323 1108 2394.63 1108 2483C1108 2571.37 1179.63 2643 1268 2643Z" fill="#F1AF6A"/>
<path d="M1163 1255C1187.85 1255 1208 1234.85 1208 1210C1208 1185.15 1187.85 1165 1163 1165C1138.15 1165 1118 1185.15 1118 1210C1118 1234.85 1138.15 1255 1163 1255Z" fill="#F1AF6A"/>
<path d="M591 1142C670.529 1142 735 1077.53 735 998C735 918.471 670.529 854 591 854C511.471 854 447 918.471 447 998C447 1077.53 511.471 1142 591 1142Z" fill="#F1AF6A"/>
<path d="M212 1661C259.496 1661 298 1622.5 298 1575C298 1527.5 259.496 1489 212 1489C164.504 1489 126 1527.5 126 1575C126 1622.5 164.504 1661 212 1661Z" fill="#F1AF6A"/>
<path d="M1010 1668C1059.71 1668 1100 1627.71 1100 1578C1100 1528.29 1059.71 1488 1010 1488C960.294 1488 920 1528.29 920 1578C920 1627.71 960.294 1668 1010 1668Z" fill="#F1AF6A"/>
<path d="M218 2028C235.673 2028 250 2013.67 250 1996C250 1978.33 235.673 1964 218 1964C200.327 1964 186 1978.33 186 1996C186 2013.67 200.327 2028 218 2028Z" fill="#F1AF6A"/>
<path d="M1079 2309C1181.17 2309 1264 2226.17 1264 2124C1264 2021.83 1181.17 1939 1079 1939C976.827 1939 894 2021.83 894 2124C894 2226.17 976.827 2309 1079 2309Z" fill="#F1AF6A"/>
<path d="M524 338C627.277 338 711 254.277 711 151C711 47.7228 627.277 -36 524 -36C420.723 -36 337 47.7228 337 151C337 254.277 420.723 338 524 338Z" fill="#F1AF6A"/>
<path d="M1154 364C1170.57 364 1184 350.569 1184 334C1184 317.431 1170.57 304 1154 304C1137.43 304 1124 317.431 1124 334C1124 350.569 1137.43 364 1154 364Z" fill="#F1AF6A"/>
<path d="M757 2714C831.006 2714 891 2654.01 891 2580C891 2505.99 831.006 2446 757 2446C682.994 2446 623 2505.99 623 2580C623 2654.01 682.994 2714 757 2714Z" fill="#F1AF6A"/>
<path d="M29 281C88.0945 281 136 233.094 136 174C136 114.906 88.0945 67 29 67C-30.0945 67 -78 114.906 -78 174C-78 233.094 -30.0945 281 29 281Z" fill="#F1AF6A"/>
<path d="M633 1774C667.794 1774 696 1745.79 696 1711C696 1676.21 667.794 1648 633 1648C598.206 1648 570 1676.21 570 1711C570 1745.79 598.206 1774 633 1774Z" fill="#F1AF6A"/>
<path d="M142 1188C219.872 1188 283 1124.87 283 1047C283 969.128 219.872 906 142 906C64.1279 906 1 969.128 1 1047C1 1124.87 64.1279 1188 142 1188Z" fill="#F1AF6A"/>
<path d="M1267 940C1358.13 940 1432 866.127 1432 775C1432 683.873 1358.13 610 1267 610C1175.87 610 1102 683.873 1102 775C1102 866.127 1175.87 940 1267 940Z" fill="#F1AF6A"/>
<path d="M683 2275C740.438 2275 787 2228.44 787 2171C787 2113.56 740.438 2067 683 2067C625.562 2067 579 2113.56 579 2171C579 2228.44 625.562 2275 683 2275Z" fill="#F1AF6A"/>
</g>
<defs>
<clipPath id="clip0_56_23">
<rect width="1280" height="2600" fill="white" transform="translate(-1)"/>
</clipPath>
</defs>
</svg>
